<?xml version="1.0" encoding="UTF-8" standalone="no"?>
<!-- Created with Inkscape (http://www.inkscape.org/) -->

<svg
   xmlns:dc="http://purl.org/dc/elements/1.1/"
   xmlns:cc="http://creativecommons.org/ns#"
   xmlns:rdf="http://www.w3.org/1999/02/22-rdf-syntax-ns#"
   xmlns:svg="http://www.w3.org/2000/svg"
   xmlns="http://www.w3.org/2000/svg"
   xmlns:sodipodi="http://sodipodi.sourceforge.net/DTD/sodipodi-0.dtd"
   xmlns:inkscape="http://www.inkscape.org/namespaces/inkscape"
   width="18.941889mm"
   height="18.941414mm"
   viewBox="0 0 67.116928 67.115243"
   id="svg2"
   version="1.1"
   inkscape:version="0.91 r13725"
   sodipodi:docname="logo.svg"
   inkscape:export-filename="/home/david/projects/code/pm/webapp/src/assets/images/logo.png"
   inkscape:export-xdpi="90"
   inkscape:export-ydpi="90">
  <defs
     id="defs4" />
  <sodipodi:namedview
     id="base"
     pagecolor="#ffffff"
     bordercolor="#666666"
     borderopacity="1.0"
     inkscape:pageopacity="0.0"
     inkscape:pageshadow="2"
     inkscape:zoom="1.52"
     inkscape:cx="118.52889"
     inkscape:cy="17.708059"
     inkscape:document-units="px"
     inkscape:current-layer="g6066"
     showgrid="false"
     inkscape:window-width="1920"
     inkscape:window-height="1016"
     inkscape:window-x="0"
     inkscape:window-y="27"
     inkscape:window-maximized="1"
     fit-margin-top="0"
     fit-margin-left="0"
     fit-margin-right="0"
     fit-margin-bottom="0" />
  <metadata
     id="metadata7">
    <rdf:RDF>
      <cc:Work
         rdf:about="">
        <dc:format>image/svg+xml</dc:format>
        <dc:type
           rdf:resource="http://purl.org/dc/dcmitype/StillImage" />
        <dc:title></dc:title>
      </cc:Work>
    </rdf:RDF>
  </metadata>
  <g
     inkscape:groupmode="layer"
     id="layer1"
     inkscape:label="background"
     style="display:none"
     transform="translate(-205.31584,-483.50358)"
     sodipodi:insensitive="true">
    <rect
       style="fill:#21ce99;fill-opacity:1;stroke:#303d93;stroke-width:0.09040753;stroke-linecap:butt;stroke-linejoin:miter;stroke-miterlimit:4;stroke-dasharray:none;stroke-opacity:1"
       id="rect5771"
       width="127.08171"
       height="95.020691"
       x="172.39272"
       y="472.78897" />
  </g>
  <g
     style="display:inline"
     inkscape:label="pizza"
     id="g6066"
     inkscape:groupmode="layer"
     transform="translate(8.0808664,0.99734065)">
    <g
       id="g6068"
       style="display:inline;image-rendering:optimizeQuality;shape-rendering:geometricPrecision;text-rendering:geometricPrecision"
       transform="matrix(-19.494478,0,0,19.494478,59.035303,-1.0011014)">
      <path
         d="m 1.4380549,1.9330831e-4 c 0.00962,-3.125043e-5 0.019455,0.001791052 0.028955,0.005791052 0.439,0.18100002 0.8419931,0.44803107 1.1829931,0.78903109 0.328,0.32800005 0.5979872,0.72494915 0.7869872,1.18094925 0.016,0.038 -0.00203,0.081 -0.040026,0.097 l -1.1809492,0.4890034 0,0.6580511 c 0,0.123 -0.1000407,0.2229556 -0.2230407,0.2229556 -0.122,0 -0.2219337,-0.099956 -0.2219337,-0.2229556 l 0,-0.4740148 -0.3880006,0.1609572 0,0.3130576 c 0,0.123 -0.1000407,0.2229556 -0.2230407,0.2229556 -0.122,0 -0.22304075,-0.099956 -0.22304075,-0.2229556 l 0,-0.1290213 -0.8349337,0.3460155 c -0.03800004,0.016 -0.08106338,-0.00203 -0.09606341,-0.040026 -0.00799998,-0.019 -0.00799998,-0.038952 0,-0.055952 L 1.3700101,0.04601076 c 0.012,-0.0285 0.03917,-0.0457237047 0.068045,-0.0458174517 z"
         id="path6087"
         inkscape:connector-curvature="0"
         style="fill:#552200;fill-opacity:1" />
      <path
         d="M 1.4790182,0.17196619 1.2620239,0.69401267 C 1.589024,0.83901268 1.8889893,1.0430075 2.1449893,1.2990075 c 0.2470001,0.247 0.4539729,0.5430286 0.6039729,0.8820286 L 3.2710087,1.9640419 c -0.179,-0.408 -0.4280108,-0.765021 -0.7260108,-1.06402102 -0.31,-0.31000001 -0.6729797,-0.55505468 -1.0659797,-0.72805469 z"
         id="path6085"
         style="fill:#aa4400"
         inkscape:connector-curvature="0" />
      <path
         d="M 1.204965,0.83103922 1.0939982,1.1010046 c 0.034,0.003 0.067022,0.011975 0.098022,0.025975 0.073,0.033 0.1329818,0.092028 0.1659818,0.1720284 0.034,0.082 0.032,0.1700346 0,0.2460346 -0.031,0.076 -0.092009,0.1409239 -0.175009,0.1749239 -0.079,0.033 -0.1640294,0.032066 -0.23802936,0.00307 -0.032,-0.012 -0.0619729,-0.029012 -0.0879729,-0.051012 l -0.645958,1.5600077 0.76697397,-0.3179969 c 0.01,-0.005 0.0209799,-0.00801 0.0339799,-0.00801 0.041,0 0.074006,0.033006 0.074006,0.074006 l 0,0.239988 c 0,0.041 0.033006,0.074006 0.074006,0.074006 0.041,0 0.075028,-0.033006 0.075028,-0.074006 l 0,-0.363048 c 0,-0.037 0.019988,-0.05596 0.045988,-0.06796 L 1.8109818,2.5690367 c 0.01,-0.005 0.02198,-0.00801 0.03398,-0.00801 0.041,0 0.074006,0.033006 0.074006,0.074006 l 0,0.5849816 c 0,0.041 0.034006,0.074006 0.074006,0.074006 0.041,0 0.075028,-0.033006 0.075028,-0.074006 l 0,-0.7080415 c 0,-0.04 0.018988,-0.05596 0.045988,-0.06796 l 0.498031,-0.2070249 c -0.142,-0.319 -0.3380369,-0.5979749 -0.5720369,-0.832975 -0.243,-0.243 -0.5260189,-0.43597364 -0.8350189,-0.57297368 z"
         id="path6083"
         style="fill:#ffff00;stroke:none;stroke-opacity:1"
         inkscape:connector-curvature="0" />
      <path
         d="m 1.1362543,1.1055319 c -0.017462,3.519e-4 -0.035074,0.00215 -0.052473,0.00523 l -0.23342981,0.560827 c 0.0429877,0.057316 0.0983657,0.1002552 0.16387121,0.1248202 0.081881,0.030705 0.176089,0.032837 0.2641119,-0.00403 0.092119,-0.036846 0.1574871,-0.108532 0.1922868,-0.1924609 0.036846,-0.085976 0.038893,-0.1843276 0,-0.2743972 C 1.4358214,1.23751 1.3682334,1.1720093 1.2863526,1.1351625 1.2402936,1.1152035 1.1886456,1.1044705 1.1362533,1.1055255 Z"
         id="path6081"
         style="fill:#dd3673;fill-opacity:1"
         inkscape:connector-curvature="0" />
      <path
         d="m 1.9108774,1.7251609 c 0.1157344,7.969e-4 0.2248444,0.069866 0.2720944,0.183866 0.032,0.076 0.029,0.1569582 0,0.2269582 -0.063,0.151 -0.2360006,0.2240424 -0.3880006,0.1610424 -0.151,-0.063 -0.2239572,-0.2370006 -0.1609572,-0.3880006 0.029,-0.071 0.084957,-0.1300424 0.1609572,-0.1610424 0.038,-0.01575 0.077328,-0.023089 0.1159062,-0.022824 z"
         id="path6079"
         style="fill:#dd3673;fill-opacity:1"
         inkscape:connector-curvature="0" />
      <path
         d="m 1.9100258,1.8738548 c -0.019328,-2.032e-4 -0.038996,0.00341 -0.057996,0.011156 -0.037,0.015 -0.065053,0.04399 -0.080053,0.08099 -0.032,0.075 0.00505,0.1620003 0.080053,0.1940004 0.076,0.031 0.1630003,-0.00499 0.1940004,-0.08099 0.015,-0.037 0.015,-0.077011 0,-0.1130108 -0.02325,-0.057 -0.07802,-0.091537 -0.1360047,-0.092146 z"
         id="path6077"
         style="fill:#dd3673;fill-opacity:1"
         inkscape:connector-curvature="0" />
      <path
         d="m 1.0239946,2.2110985 c 0.034553,-0.00246 0.070777,0.00288 0.1069642,0.017884 0.12,0.05 0.1770625,0.187033 0.1270625,0.308033 -0.023,0.056 -0.067063,0.1029993 -0.1270625,0.1279993 -0.06,0.025 -0.1249705,0.023 -0.18097049,0 -0.055,-0.023 -0.10197735,-0.067999 -0.12697735,-0.1279993 -0.0658125,-0.157625 0.0512551,-0.3152594 0.20098364,-0.3259171 z"
         id="path6075"
         style="fill:#dd3673;fill-opacity:1"
         inkscape:connector-curvature="0" />
      <path
         d="m 1.0471588,2.3593665 c -0.0616055,-0.00515 -0.11337131,0.05855 -0.0871213,0.1206754 0.009,0.022 0.0259246,0.037925 0.0469246,0.046925 0.022,0.009 0.045023,0.009 0.067023,0 0.021,-0.009 0.03801,-0.024925 0.04701,-0.046925 0.019,-0.045 -0.00301,-0.096033 -0.04701,-0.1140327 -0.009,-0.00375 -0.018025,-0.00591 -0.026826,-0.00664 z"
         id="path6070"
         style="fill:#dd3673;fill-opacity:1"
         inkscape:connector-curvature="0" />
    </g>
  </g>
  <style
     id="style4228"
     type="text/css">
	.st0{fill:#00BBE3;}
</style>
</svg>
