<?xml version="1.0" encoding="UTF-8" standalone="no"?>
<svg
   xmlns:dc="http://purl.org/dc/elements/1.1/"
   xmlns:cc="http://creativecommons.org/ns#"
   xmlns:rdf="http://www.w3.org/1999/02/22-rdf-syntax-ns#"
   xmlns:svg="http://www.w3.org/2000/svg"
   xmlns="http://www.w3.org/2000/svg"
   xmlns:sodipodi="http://sodipodi.sourceforge.net/DTD/sodipodi-0.dtd"
   xmlns:inkscape="http://www.inkscape.org/namespaces/inkscape"
   version="1.1"
   x="0px"
   y="0px"
   viewBox="0 0 93 93"
   xml:space="preserve"
   id="svg2"
   inkscape:version="0.91 r13725"
   sodipodi:docname="oops.svg"
   width="93"
   height="93"><metadata
     id="metadata20"><rdf:RDF><cc:Work
         rdf:about=""><dc:format>image/svg+xml</dc:format><dc:type
           rdf:resource="http://purl.org/dc/dcmitype/StillImage" /><dc:title></dc:title></cc:Work></rdf:RDF></metadata><defs
     id="defs18" /><sodipodi:namedview
     pagecolor="#ffffff"
     bordercolor="#666666"
     borderopacity="1"
     objecttolerance="10"
     gridtolerance="10"
     guidetolerance="10"
     inkscape:pageopacity="0"
     inkscape:pageshadow="2"
     inkscape:window-width="1920"
     inkscape:window-height="1016"
     id="namedview16"
     showgrid="false"
     fit-margin-top="0"
     fit-margin-left="0"
     fit-margin-right="0"
     fit-margin-bottom="0"
     inkscape:zoom="1.888"
     inkscape:cx="47.559322"
     inkscape:cy="34"
     inkscape:window-x="0"
     inkscape:window-y="27"
     inkscape:window-maximized="1"
     inkscape:current-layer="svg2" /><path
     d="M 50.3,73 C 50,73 49.7,72.9 49.5,72.7 48.8,72.2 48.6,71.3 49.1,70.6 54.7,62.1 64.2,57 74.4,57 c 0.8,0 1.5,0.7 1.5,1.5 0,0.8 -0.7,1.5 -1.5,1.5 -9.2,0 -17.7,4.6 -22.8,12.2 -0.3,0.6 -0.8,0.8 -1.3,0.8 z"
     id="path4"
     inkscape:connector-curvature="0" /><path
     d="m 33,40.3 c -4,0 -7.3,-3.3 -7.3,-7.3 0,-4 3.3,-7.3 7.3,-7.3 4,0 7.3,3.3 7.3,7.3 0,4 -3.3,7.3 -7.3,7.3 z m 0,-11.5 c -2.4,0 -4.3,1.9 -4.3,4.3 0,2.4 1.9,4.3 4.3,4.3 2.4,0 4.3,-1.9 4.3,-4.3 0,-2.4 -1.9,-4.3 -4.3,-4.3 z"
     id="path6"
     inkscape:connector-curvature="0" /><path
     d="m 59.9,40.3 c -4,0 -7.3,-3.3 -7.3,-7.3 0,-4 3.3,-7.3 7.3,-7.3 4,0 7.3,3.3 7.3,7.3 0,4 -3.3,7.3 -7.3,7.3 z m 0,-11.5 c -2.4,0 -4.3,1.9 -4.3,4.3 0,2.4 1.9,4.3 4.3,4.3 2.4,0 4.3,-1.9 4.3,-4.3 0,-2.4 -1.9,-4.3 -4.3,-4.3 z"
     id="path8"
     inkscape:connector-curvature="0" /><path
     d="M 72.2,93 20.8,93 C 9.3,93 0,83.7 0,72.2 L 0,46.5 C 0,20.9 20.9,0 46.5,0 72.1,0 93,20.9 93,46.5 l 0,25.7 C 93,83.7 83.7,93 72.2,93 Z M 46.5,5 C 23.6,5 5,23.6 5,46.5 L 5,72.2 C 5,80.9 12.1,88 20.8,88 l 51.4,0 C 80.9,88 88,80.9 88,72.2 L 88,46.5 C 88,23.6 69.4,5 46.5,5 Z"
     id="path10"
     inkscape:connector-curvature="0" /></svg>