<svg xmlns="http://www.w3.org/2000/svg" xmlns:xlink="http://www.w3.org/1999/xlink" version="1.1" x="0px" y="0px" viewBox="0 0 22 27.5" style="enable-background:new 0 0 22 22;" xml:space="preserve"><g><path d="M22,21v-1c0-0.55-0.45-1-1-1h-2.818l-2.302-8.44L4.579,16.21L3.818,19H1c-0.55,0-1,0.45-1,1v1c0,0.55,0.45,1,1,1h20   C21.55,22,22,21.55,22,21z"/><path d="M13.264,0.965C13.119,0.435,12.55,0,12,0h-2C9.45,0,8.881,0.435,8.736,0.965L7.421,5.79l6.3-3.15L13.264,0.965z"/><polygon points="14.44,5.28 6.474,9.263 5.526,12.737 15.16,7.92  "/></g><text x="0" y="37" fill="#000000" font-size="5px" font-weight="bold" font-family="'Helvetica Neue', Helvetica, Arial-Unicode, Arial, Sans-serif">Created by Hea Poh Lin</text><text x="0" y="42" fill="#000000" font-size="5px" font-weight="bold" font-family="'Helvetica Neue', Helvetica, Arial-Unicode, Arial, Sans-serif">from the Noun Project</text></svg>